<?xml version="1.0" encoding="UTF-8"?>
<svg id="uuid-00b45656-8521-46cc-b800-c9a90e473e9a" xmlns="http://www.w3.org/2000/svg"
    viewBox="0 0 180 180">
    <defs>
        <style>
            @media (prefers-color-scheme: dark) {
                .uuid-90a36257-c228-4a1a-8a9e-fa18199417a3 { fill: black; }
                .uuid-92c2478a-2de9-4463-af09-91c93d0a959e {fill: gray; }
            }
            @media (prefers-color-scheme: light) {
                .uuid-90a36257-c228-4a1a-8a9e-fa18199417a3 { fill: white; }
                .uuid-92c2478a-2de9-4463-af09-91c93d0a959e {fill: black; }
            }
        </style>
    </defs>
    <path class="uuid-92c2478a-2de9-4463-af09-91c93d0a959e"
        d="M120.47006,151.25591h13.41279c13.24025,0,25.82761-5.75118,34.49455-15.76059l.00004-.00004c12.98035-14.99096,14.79246-36.64938,4.48365-53.58889l-24.05277-39.5237c-14.12839-23.21588-43.81289-27.98028-64.32618-14.2932,0,0,102.38212,65.39221,35.98792,123.16642Z" />
    <path class="uuid-90a36257-c228-4a1a-8a9e-fa18199417a3"
        d="M134.84684,143.11172l-.00004.00004c-8.66694,10.00942-21.2543,15.76059-34.49455,15.76059h-48.10547c-13.24025,0-25.82761-5.75118-34.49455-15.76059l-.00004-.00004c-12.98035-14.99096-14.79246-36.64938-4.48365-53.58889l24.05277-39.5237c17.77652-29.21051,60.17988-29.21051,77.9564,0l24.05277,39.5237c10.30881,16.93951,8.4967,38.59793-4.48365,53.58889Z" />
    <path class="uuid-92c2478a-2de9-4463-af09-91c93d0a959e"
        d="M100.35246,164.96509h-48.10547c-15.01855,0-29.27051-6.51172-39.10156-17.86523-14.76953-17.05762-16.81152-41.46875-5.08203-60.74512l24.05273-39.52344c9.46289-15.5498,25.98047-24.83301,44.18262-24.83301,18.20312,0,34.7207,9.2832,44.18359,24.83398l24.05371,39.52246c11.72949,19.27441,9.68457,43.68652-5.08301,60.74512h0c-9.83105,11.35352-24.08203,17.86523-39.10059,17.86523ZM76.29875,34.18384c-13.91406,0-26.53906,7.09668-33.77246,18.98242l-24.05273,39.52441c-8.9668,14.7334-7.40527,33.39355,3.88477,46.43262,7.51465,8.67871,18.4082,13.65625,29.88867,13.65625h48.10547c11.47949,0,22.37305-4.97754,29.8877-13.65625h0c11.29102-13.03906,12.85254-31.69922,3.88574-46.43359l-24.05371-39.52246c-7.2334-11.88672-19.8584-18.9834-33.77344-18.9834Z" />
    <path class="uuid-92c2478a-2de9-4463-af09-91c93d0a959e"
        d="M102.97453,78.22321l-24.9375-12.48383c-1.979-.99078-4.32031-.93896-6.25342.13849l-22.42139,12.49487c-2.12012,1.18164-3.43457,3.4187-3.43457,5.84607v16.98016c0,8.68488,5.62598,15.83362,10.79688,22.9472,4.75439,6.54016,10.67969,10.91907,17.77588,13.13666,1.22314.3822,2.56396.3822,3.78711,0,7.09668-2.21759,13.02197-6.5965,17.77588-13.13666,5.1709-7.11359,10.60791-14.47534,10.60791-23.16022v-16.77814c0-2.53381-1.43066-4.85034-3.69678-5.98462ZM74.35246,121.11896c0,1.07098-1.31445,1.58527-2.0415.79871,0,0-14.76709-12.52094-14.76709-21.00391v-11.74567c0-.43512.24023-.83478.62402-1.03906l14.45508-7.68689c.78369-.41687,1.72949.15125,1.72949,1.039v39.63782Z" />
</svg>